<?xml version="1.0" encoding="utf-8"?>
<!-- Generator: Adobe Illustrator 16.0.4, SVG Export Plug-In . SVG Version: 6.00 Build 0)  -->
<!DOCTYPE svg PUBLIC "-//W3C//DTD SVG 1.1//EN" "http://www.w3.org/Graphics/SVG/1.1/DTD/svg11.dtd">
<svg version="1.1" xmlns="http://www.w3.org/2000/svg" xmlns:xlink="http://www.w3.org/1999/xlink" x="0px" y="0px" width="900px"
	 height="300px" viewBox="-197.5 0 900 300" enable-background="new -197.5 0 900 300" xml:space="preserve">
<g id="Livello_2">
	<rect x="684.492" y="143" width="10" height="10" fill="#333333" />
	<rect x="665.496" y="143" width="10" height="10" fill="#333333" />
	<rect x="646.496" y="143" width="10" height="10" fill="#333333" />
	<rect x="627.5" y="143" width="10" height="10" fill="#333333" />
	<rect x="608.5" y="143" width="10" height="10" fill="#333333" />
	<rect x="589.504" y="143" width="10" height="10" fill="#333333" />
	<rect x="570.504" y="143" width="10" height="10" fill="#333333" />
	<rect x="551.508" y="143" width="10" height="10" fill="#333333" />
	<rect x="532.512" y="143" width="10" height="10" fill="#333333" />
	<rect x="513.516" y="143" width="10" height="10" fill="#333333" />
	<rect x="494.516" y="143" width="10" height="10" fill="#333333" />
	<rect x="475.52" y="143" width="10" height="10" fill="#333333" />
	<rect x="456.52" y="143" width="10" height="10" fill="#333333" />
	<rect x="437.523" y="143" width="10" height="10" fill="#333333" />
	<rect x="418.523" y="143" width="10" height="10" fill="#333333" />
	<rect x="399.527" y="143" width="10" height="10" fill="#333333" />
	<rect x="380.531" y="143" width="10" height="10" fill="#333333" />
	<rect x="361.535" y="143" width="10" height="10" fill="#333333" />
	<rect x="342.535" y="143" width="10" height="10" fill="#333333" />
	<rect x="323.539" y="143" width="10" height="10" fill="#333333" />
	<rect x="304.539" y="143" width="10" height="10" fill="#333333" />
	<rect x="285.543" y="143" width="10" height="10" fill="#333333" />
	<rect x="266.543" y="143" width="10" height="10" fill="#333333" />
	<rect x="247.547" y="143" width="10" height="10" fill="#333333" />
	<rect x="228.551" y="143" width="10" height="10" fill="#333333" />
	<rect x="209.555" y="143" width="10" height="10" fill="#333333" />
	<rect x="190.555" y="143" width="10" height="10" fill="#333333" />
	<rect x="171.559" y="143" width="10" height="10" fill="#333333" />
	<rect x="152.559" y="143" width="10" height="10" fill="#333333" />
	<rect x="133.562" y="143" width="10" height="10" fill="#333333" />
	<rect x="114.562" y="143" width="10" height="10" fill="#333333" />
	<rect x="95.566" y="143" width="10" height="10" fill="#333333" />
	<rect x="76.57" y="143" width="10" height="10" fill="#333333" />
	<rect x="57.574" y="143" width="10" height="10" fill="#333333" />
	<rect x="38.574" y="143" width="10" height="10" fill="#333333" />
	<rect x="19.578" y="143" width="10" height="10" fill="#333333" />
	<rect x="0.578" y="143" width="10" height="10" fill="#333333" />
	<rect x="-18.418" y="143" width="10" height="10" fill="#333333" />
	<rect x="-37.418" y="143" width="10" height="10" fill="#333333" />
	<rect x="-56.414" y="143" width="10" height="10" fill="#333333" />
	<rect x="-75.41" y="143" width="10" height="10" fill="#333333" />
	<rect x="-94.406" y="143" width="10" height="10" fill="#333333" />
	<rect x="-113.406" y="143" width="10" height="10" fill="#333333" />
	<rect x="-132.402" y="143" width="10" height="10" fill="#333333" />
	<rect x="-151.402" y="143" width="10" height="10" fill="#333333" />
	<rect x="-170.398" y="143" width="10" height="10" fill="#333333" />
	<rect x="-189.398" y="143" width="10" height="10" fill="#333333" />
</g>
</svg>
