<?xml version="1.0" encoding="utf-8"?>
<!-- Generator: Adobe Illustrator 16.0.4, SVG Export Plug-In . SVG Version: 6.00 Build 0)  -->
<!DOCTYPE svg PUBLIC "-//W3C//DTD SVG 1.1//EN" "http://www.w3.org/Graphics/SVG/1.1/DTD/svg11.dtd">
<svg version="1.1" xmlns="http://www.w3.org/2000/svg" xmlns:xlink="http://www.w3.org/1999/xlink" x="0px" y="0px" width="900px"
	 height="300px" viewBox="-197.5 0 900 300" enable-background="new -197.5 0 900 300" xml:space="preserve">
<g id="audio-spectrum-analyzer" onclick="toggleAudio()">
	<rect x="168.502" y="139" fill="#333333" width="10" height="20"/>
	<rect x="188.5" y="89" fill="#333333" width="10" height="120"/>
	<rect x="208.5" y="109" fill="#333333" width="10" height="80"/>
	<rect x="228.5" y="49" fill="#333333" width="10" height="200"/>
	<rect x="248.5" y="9" fill="#333333" width="10" height="280"/>
	<rect x="268.5" y="59" fill="#333333" width="10" height="180"/>
	<rect x="288.5" y="109" fill="#333333" width="10" height="80"/>
	<rect x="-173.5" y="59" fill="#333333" width="10" height="180"/>
	<rect x="-153.5" y="109" fill="#333333" width="10" height="80"/>
	<rect x="308.5" y="129" fill="#333333" width="10" height="40"/>
	<rect x="328.5" y="139" fill="#333333" width="10" height="20"/>
	<rect x="348.5" y="144" fill="#333333" width="10" height="10"/>
	<rect x="-190.5" y="146" fill="#333333" width="10" height="10"/>
	<rect x="-51.512" y="139" fill="#333333" width="10" height="20"/>
	<rect x="-31.513" y="129" fill="#333333" width="10" height="40"/>
	<rect x="-11.514" y="89" fill="#333333" width="10" height="120"/>
	<rect x="8.485" y="109" fill="#333333" width="10" height="80"/>
	<rect x="28.484" y="49" fill="#333333" width="10" height="200"/>
	<rect x="48.483" y="38.5" fill="#333333" width="10" height="225"/>
	<rect x="68.482" y="59" fill="#333333" width="10" height="180"/>
	<rect x="88.481" y="72.5" fill="#333333" width="10" height="153"/>
	<rect x="108.48" y="115.999" fill="#333333" width="10" height="70.002"/>
	<rect x="128.48" y="139" fill="#333333" width="10" height="20"/>
	<rect x="148.48" y="126" fill="#333333" width="10" height="43"/>
	<rect x="-113.498" y="139" fill="#333333" width="10" height="20"/>
	<rect x="-93.5" y="89" fill="#333333" width="10" height="120"/>
	<rect x="-73.5" y="109" fill="#333333" width="10" height="80"/>
	<rect x="-133.52" y="126" fill="#333333" width="10" height="43"/>
	<rect x="530.502" y="139" fill="#333333" width="10" height="20"/>
	<rect x="550.5" y="89" fill="#333333" width="10" height="120"/>
	<rect x="570.5" y="109" fill="#333333" width="10" height="80"/>
	<rect x="627.5" y="49" fill="#333333" width="10" height="200"/>
	<rect x="645.5" y="73.003" fill="#333333" width="10" height="149.99"/>
	<rect x="608.5" y="59" fill="#333333" width="10" height="180"/>
	<rect x="589.5" y="99" fill="#333333" width="10" height="100.002"/>
	<rect x="665.494" y="129" fill="#333333" width="10" height="40"/>
	<rect x="684.492" y="143" fill="#333333" width="10" height="10"/>
	<rect x="371.489" y="119" fill="#333333" width="9.999" height="59.999"/>
	<rect x="391.488" y="79.001" fill="#333333" width="10" height="140.996"/>
	<rect x="411.487" y="38.5" fill="#333333" width="9.999" height="225"/>
	<rect x="431.486" y="59" fill="#333333" width="10" height="180"/>
	<rect x="451.485" y="72.5" fill="#333333" width="9.999" height="153"/>
	<rect x="471.484" y="115.999" fill="#333333" width="10" height="70.002"/>
	<rect x="491.484" y="139" fill="#333333" width="10" height="20"/>
	<rect x="510.48" y="126" fill="#333333" width="10" height="43"/>
</g>
</svg>
